<svg xmlns="http://www.w3.org/2000/svg" version="1.1" viewBox="0.08 -0.15 856.09 1028.4">
<path d="M0 0 C36.23415392 -0.6098818 68.5763275 9.00201424 95.0703125 34.30859375 C104.7273374 44.19947823 120.5078125 62.6790409 120.5078125 77.12109375 C121.40983398 77.02235962 121.40983398 77.02235962 122.33007812 76.92163086 C161.57517698 72.77241831 200.86209936 76.79973188 232.80859375 101.921875 C234.14470703 103.01048828 234.14470703 103.01048828 235.5078125 104.12109375 C236.28511719 104.73339844 237.06242188 105.34570312 237.86328125 105.9765625 C258.00246828 122.69386996 269.82694218 148.06658867 275.5078125 173.12109375 C275.67297363 173.83023926 275.83813477 174.53938477 276.00830078 175.27001953 C278.43274544 186.23893925 278.76991573 197.26949796 278.76953125 208.46875 C278.77040237 209.23727169 278.7712735 210.00579338 278.77217102 210.79760361 C278.75078897 236.43777311 277.09361002 262.04947288 275.72644043 287.64520264 C275.14639443 298.51124375 274.580925 309.37803935 274.02090454 320.24512863 C273.82608819 323.98672953 273.6247419 327.72793508 273.42260742 331.46914673 C272.74117064 344.36775656 272.32191922 357.2043386 272.5078125 370.12109375 C273.58359055 369.57801575 274.65936859 369.03493774 275.76774597 368.47540283 C279.20795891 366.74026157 282.65528953 365.02079683 286.10791016 363.31054688 C287.69740319 362.52275338 289.28564046 361.73242068 290.87255859 360.93945312 C318.08372268 347.39284265 346.80730456 340.86729634 376.5625 350.375 C391.57991876 355.49829374 403.86962155 363.43783129 415.5078125 374.12109375 C416.70857422 375.19810547 416.70857422 375.19810547 417.93359375 376.296875 C439.90091567 397.01561024 455.38041136 429.88219788 456.63232422 460.12939453 C457.46072637 496.55336256 448.52700717 521.9691824 427.06689453 551.00048828 C424.86552448 553.99471006 422.71762726 557.02551722 420.5703125 560.05859375 C416.08581375 566.36431619 411.49143744 572.58712082 406.89306641 578.81005859 C401.2464182 586.45843672 395.67900788 594.16228654 390.12548828 601.87841797 C388.48571877 604.15172355 386.83949941 606.42022304 385.19140625 608.6875 C378.1399095 618.39525443 371.2258141 628.17954339 364.5078125 638.12109375 C363.91629395 638.99475586 363.32477539 639.86841797 362.71533203 640.76855469 C342.91737889 670.06570353 324.71128319 700.23646098 307.5078125 731.12109375 C307.01990234 731.99636719 306.53199219 732.87164063 306.02929688 733.7734375 C293.79201797 755.79722767 282.07375291 778.06783231 271.7578125 801.05859375 C250.28889062 848.88594912 223.58181955 896.36250345 185.5078125 933.12109375 C182.91141567 935.70060345 180.3360914 938.29724319 177.78125 940.91796875 C171.36884477 947.47483229 164.75060753 953.47331868 157.5078125 959.12109375 C156.53585937 959.89839844 155.56390625 960.67570313 154.5625 961.4765625 C98.17068423 1005.92575062 27.34474263 1028.32782571 -44.1171875 1028.37109375 C-45.11940338 1028.37176849 -46.12161926 1028.37244324 -47.15420532 1028.37313843 C-62.80936679 1028.35642134 -78.02701398 1027.74643374 -93.4921875 1025.12109375 C-94.54245117 1024.9494873 -95.59271484 1024.77788086 -96.67480469 1024.60107422 C-159.51058803 1014.12844366 -219.03170493 985.638701 -266.4921875 943.12109375 C-267.47058594 942.25355469 -268.44898438 941.38601563 -269.45703125 940.4921875 C-280.77661362 930.29696633 -292.02444258 919.73274782 -301.44140625 907.7265625 C-303.60964967 904.97186086 -305.88893319 902.33701999 -308.1796875 899.68359375 C-352.43035819 846.35060948 -373.48958076 780.35640385 -376.9296875 712.00390625 C-377.05737133 709.55710493 -377.1857217 707.11033831 -377.31469727 704.66360474 C-377.58047347 699.61508094 -377.84384723 694.56644093 -378.10546875 689.5177002 C-378.68706808 678.33976992 -379.30747448 667.16401172 -379.9296875 655.98828125 C-380.02131794 654.3390523 -380.02131794 654.3390523 -380.1147995 652.65650558 C-380.57160934 644.43623797 -381.03125084 636.21613091 -381.4921875 627.99609375 C-381.5621846 626.7467379 -381.6321817 625.49738205 -381.70429993 624.21016693 C-385.09564807 563.72857815 -388.78518654 503.26516057 -392.49625945 442.80246925 C-396.60666248 375.82588807 -396.60666248 375.82588807 -398.296875 345.80859375 C-398.35824394 344.73419163 -398.41961288 343.65978951 -398.48284149 342.55282974 C-401.0279676 297.82831563 -400.32251071 255.11338919 -369.60473633 219.45751953 C-349.00114631 196.41369067 -318.99987838 185.00763209 -288.6796875 182.37109375 C-278.63559661 181.85136342 -268.54635603 182.03663769 -258.4921875 182.12109375 C-258.23638916 181.34733398 -257.98059082 180.57357422 -257.71704102 179.77636719 C-252.42001859 163.8463599 -246.92877445 148.20635064 -239.4921875 133.12109375 C-239.15477539 132.42854492 -238.81736328 131.73599609 -238.46972656 131.02246094 C-228.47062433 110.70233415 -214.26924333 93.5775383 -192.7421875 85.24609375 C-177.61002634 80.49972917 -162.50783835 79.6427072 -146.7421875 79.80859375 C-144.88517321 79.81792753 -143.02815822 79.82712243 -141.17114258 79.83618164 C-112.33345683 80.05446522 -112.33345683 80.05446522 -98.4921875 83.12109375 C-98.3684375 82.59644531 -98.2446875 82.07179688 -98.1171875 81.53125 C-90.67862526 53.59015058 -71.14676092 26.9520441 -46.37548828 12.19189453 C-32.23222923 4.15036819 -16.15095908 0.56004444 0 0 Z M-17.9921875 79.4765625 C-33.48748359 96.46489493 -36.72694378 125.18364693 -36.60058594 147.29663086 C-36.5972311 148.34521995 -36.59387627 149.39380903 -36.59041977 150.47417355 C-36.5306695 161.09590696 -36.17781859 171.69990965 -35.7578125 182.3125 C-35.67864715 184.39611003 -35.59984147 186.47973376 -35.5213623 188.56336975 C-35.31083028 194.11979432 -35.09441627 199.67597508 -34.87675476 205.23212433 C-34.69524338 209.88764747 -34.51764089 214.54331678 -34.33992386 219.19898605 C-33.39502443 243.92674266 -32.39840157 268.6520164 -31.3359375 293.375 C-31.24257222 295.55430595 -31.14920876 297.73361198 -31.05584717 299.91291809 C-30.65817945 309.17730703 -30.25692391 318.44149335 -29.84165764 327.7051115 C-28.34269706 361.23906302 -28.34269706 361.23906302 -28.3125 375.33984375 C-28.30966003 376.26536041 -28.30682007 377.19087708 -28.30389404 378.1444397 C-28.37608949 389.01220061 -30.64874582 398.45479402 -37.4921875 407.12109375 C-45.05581774 414.52812709 -54.06596171 417.12109375 -64.4921875 417.12109375 C-74.62288949 416.16339076 -82.08549642 412.63693474 -88.6640625 404.828125 C-93.7647756 397.27514599 -96.38078182 388.24501738 -96.83151245 379.19274902 C-96.8815379 378.22385239 -96.93156334 377.25495575 -96.98310471 376.25669861 C-97.03363621 375.2032576 -97.08416771 374.14981659 -97.13623047 373.06445312 C-97.19286488 371.9439003 -97.24949928 370.82334747 -97.30784988 369.6688385 C-97.4954698 365.93435146 -97.67751926 362.19961561 -97.859375 358.46484375 C-97.9575257 356.48862515 -98.0556798 354.5124067 -98.15416658 352.53620481 C-99.64337524 322.64118997 -101.0336883 292.74130142 -102.42126465 262.84143066 C-102.91473325 252.20936922 -103.40996879 241.57738989 -103.90591228 230.94544363 C-104.11839625 226.38899841 -104.32986163 221.83250665 -104.54104614 217.27600098 C-104.85309453 210.55745679 -105.17004723 203.83916152 -105.4921875 197.12109375 C-105.53836967 196.15330994 -105.58455185 195.18552612 -105.63213348 194.18841553 C-105.75934898 191.54927612 -105.89032036 188.9103566 -106.02294922 186.27148438 C-106.07678111 185.14930889 -106.07678111 185.14930889 -106.13170052 184.0044632 C-106.66405521 173.68008919 -107.66903545 163.36648108 -115.5546875 155.93359375 C-125.73566793 147.94979072 -137.65174146 145.31094898 -150.30859375 146.578125 C-161.35250017 148.46168695 -170.44719832 154.52930056 -177.4921875 163.12109375 C-186.1131665 176.66281133 -186.96433222 190.89789978 -186.77539062 206.44311523 C-186.7637551 208.24493563 -186.75264285 210.04675948 -186.74201202 211.84858608 C-186.58092159 232.48966062 -185.83813739 253.11695613 -185.07868385 273.74294591 C-184.8768512 279.27239612 -184.68395845 284.80215899 -184.4901123 290.33189392 C-184.12376061 300.74875471 -183.75065917 311.16536029 -183.37450933 321.58187145 C-182.69956998 340.27743255 -182.03545175 358.97337889 -181.37541819 377.66947168 C-181.14443934 384.20410784 -180.91013538 390.73861338 -180.67293549 397.27302659 C-180.52592443 401.33592655 -180.38120671 405.39890615 -180.2369976 409.46190643 C-180.17028193 411.32743603 -180.1025991 413.19293136 -180.03381538 415.05838585 C-178.39205538 459.63905827 -178.39205538 459.63905827 -189.4921875 473.12109375 C-195.05179475 478.88116761 -202.86627046 480.98040284 -210.703125 481.21875 C-221.2106321 480.70710179 -232.03548569 477.98571142 -239.4921875 470.12109375 C-247.17728258 459.4064623 -247.74699473 447.59349024 -248.23828125 434.79150391 C-248.29388214 433.50333771 -248.34948303 432.21517151 -248.4067688 430.88796997 C-248.55813969 427.37824172 -248.70021973 423.8681928 -248.8406868 420.35801363 C-248.99142681 416.63551448 -249.15133574 412.91340894 -249.31030273 409.19125366 C-249.61128146 402.11378715 -249.90487063 395.03603589 -250.19543743 387.95813501 C-250.55234313 379.26875358 -250.91618933 370.57966717 -251.28125 361.890625 C-251.32959456 360.73919895 -251.32959456 360.73919895 -251.37891579 359.56451178 C-252.01976194 344.3065309 -252.67029471 329.04898006 -253.33331299 313.79194641 C-253.48031785 310.39534619 -253.62495315 306.99865359 -253.76904297 303.60192871 C-253.9608938 299.11195475 -254.16516674 294.6227699 -254.38302612 290.13398361 C-254.45404511 288.63636295 -254.5209368 287.13853894 -254.58303833 285.640522 C-255.20401994 270.44458019 -255.20401994 270.44458019 -262.61328125 257.58984375 C-270.80818602 251.1838475 -281.52147151 250.33538805 -291.4921875 251.12109375 C-302.90300106 253.52989034 -310.53360586 258.66081925 -316.8984375 268.3671875 C-325.66754924 283.51969676 -328.69332811 300.55939914 -328.69140625 317.8359375 C-328.69149878 318.52611403 -328.6915913 319.21629055 -328.69168663 319.92738152 C-328.66536477 338.57390037 -327.56181454 357.16626555 -326.47370529 375.77518463 C-326.24315854 379.74236622 -326.01941289 383.70992163 -325.79543781 387.67747879 C-323.86593739 421.82564598 -321.72961504 455.96065931 -319.52231026 490.09184647 C-318.81863515 500.9742279 -318.13073482 511.85742759 -317.46484375 522.7421875 C-317.40374389 523.74039017 -317.40374389 523.74039017 -317.34140968 524.75875854 C-316.9774691 530.70791472 -316.61513255 536.65716804 -316.25418091 542.60650635 C-315.33548821 557.73828915 -314.38458758 572.86699873 -313.37055779 587.99269676 C-312.86530848 595.53522169 -312.36499064 603.078074 -311.8671875 610.62109375 C-311.81264278 611.44698124 -311.75809807 612.27286873 -311.70190048 613.12378311 C-310.06825817 637.92101389 -308.78394914 662.69258451 -308.12451172 687.53710938 C-307.82981612 698.37137542 -307.36321611 709.16366041 -306.546875 719.97265625 C-306.46883133 721.01814636 -306.39078766 722.06363647 -306.31037903 723.14080811 C-301.93249182 777.67571271 -277.74037063 829.36772308 -240.4921875 869.12109375 C-239.25657811 870.53214463 -238.02685933 871.94838818 -236.8046875 873.37109375 C-231.17651974 879.82770676 -225.0353099 885.60414427 -218.4921875 891.12109375 C-217.97076172 891.56694824 -217.44933594 892.01280273 -216.91210938 892.47216797 C-200.51548127 906.43678224 -182.64028316 918.27015241 -163.4921875 928.12109375 C-162.29505127 928.73911865 -162.29505127 928.73911865 -161.07373047 929.36962891 C-104.77921416 958.0850171 -40.75803739 965.6755199 20.5078125 950.12109375 C21.33909668 949.91145996 22.17038086 949.70182617 23.02685547 949.48583984 C61.41902166 939.52947652 97.07444208 919.09685965 126.16015625 892.28125 C127.71548745 890.85013826 129.29108162 889.44071712 130.88671875 888.0546875 C143.79347701 876.80529787 154.40049462 863.88152689 164.5078125 850.12109375 C165.16265625 849.24066406 165.8175 848.36023438 166.4921875 847.453125 C172.34552949 839.35600191 177.46261522 830.7364626 182.5078125 822.12109375 C183.11665283 821.0849292 183.11665283 821.0849292 183.73779297 820.02783203 C190.96067422 807.53444351 196.29545827 794.27285285 201.76196289 780.95263672 C207.58074511 766.79478531 213.85578779 752.9106464 220.5078125 739.12109375 C221.00877441 738.08065918 221.50973633 737.04022461 222.02587891 735.96826172 C229.26852568 721.00954638 237.14030814 706.47808965 245.5078125 692.12109375 C246.15331055 691.01233887 246.79880859 689.90358398 247.46386719 688.76123047 C255.02483481 675.7975514 262.67585147 662.90217999 270.98974609 650.40332031 C272.74865481 647.75901689 274.49694008 645.10779692 276.24609375 642.45703125 C288.38111726 624.11537677 300.97880374 606.13398815 313.89892578 588.33886719 C316.60824433 584.60420107 319.30755416 580.86231302 322.0078125 577.12109375 C325.26644961 572.6071363 328.52647918 568.09421699 331.79296875 563.5859375 C338.57447366 554.22162695 345.29445424 544.81720659 351.93798828 535.35449219 C353.58142259 533.01636823 355.23003561 530.681949 356.87890625 528.34765625 C360.44638225 523.28902625 363.98208785 518.20888411 367.5078125 513.12109375 C368.45817383 511.75670166 368.45817383 511.75670166 369.42773438 510.36474609 C371.34303484 507.60511252 373.24004733 504.8337193 375.1328125 502.05859375 C375.71272949 501.22682617 376.29264648 500.39505859 376.89013672 499.53808594 C385.58251754 486.67244005 387.82811215 473.88115718 385.29296875 458.63671875 C381.97438304 443.77737975 374.36462761 429.85503154 361.5078125 421.30859375 C353.64376077 416.73751971 345.47491234 415.91635408 336.625 417.703125 C322.60655174 421.79651189 311.71127101 431.0733052 301.5078125 441.12109375 C300.94803711 441.65895508 300.38826172 442.19681641 299.81152344 442.75097656 C295.67830129 446.77560831 292.06348243 450.98665973 288.6328125 455.62109375 C288.11452881 456.31904053 287.59624512 457.0169873 287.06225586 457.73608398 C282.04422207 464.5958965 277.7001131 471.73637095 273.5078125 479.12109375 C272.78706543 480.37986328 272.78706543 480.37986328 272.05175781 481.6640625 C265.97017385 492.28883598 260.02323703 502.98027365 254.1953125 513.74609375 C236.61988995 546.0837346 236.61988995 546.0837346 221.5078125 551.12109375 C209.0724787 551.99099669 198.27863413 550.98122769 188.2265625 542.82421875 C181.50363048 536.1624043 178.5894463 527.26378715 178.48245263 517.90218735 C178.54680304 515.35589657 178.65881552 512.81657791 178.79202271 510.27294922 C178.83952136 509.31394651 178.88702002 508.35494381 178.93595803 507.36688042 C179.56317188 495.77220488 180.75925835 484.23793387 181.96044922 472.69140625 C182.21241422 470.22460757 182.46383219 467.75775297 182.7147522 465.29084778 C183.25183136 460.02252624 183.79261617 454.75460636 184.33694077 449.48703003 C185.12725309 441.83881294 185.91047017 434.1898814 186.69210567 426.54077327 C187.96555282 414.08056093 189.24442426 401.62091176 190.52685547 389.16162109 C191.76327732 377.14920149 192.99733693 365.13654337 194.22802734 353.12353516 C194.34158177 352.01512237 194.34158177 352.01512237 194.45743023 350.8843174 C194.91328123 346.43451309 195.36903838 341.98469917 195.82476911 337.53488255 C196.49429689 330.99768736 197.16398722 324.46050883 197.83377075 317.92333984 C197.906121 317.21717152 197.97847125 316.51100319 198.05301394 315.78343582 C199.24365435 304.16295761 200.43706657 292.54276585 201.63158453 280.92268562 C202.61487205 271.35623752 203.59589869 261.78955954 204.57502711 252.22268486 C205.14514688 246.65367621 205.71768586 241.08493152 206.2942394 235.51658535 C206.65079308 232.06601434 207.00310824 228.61501427 207.35595703 225.1640625 C207.47324598 224.04305649 207.59053493 222.92205048 207.7113781 221.76707458 C209.90462762 200.13653075 208.51439377 181.8269068 195.1484375 163.96875 C189.7034641 157.64807228 183.82766343 153.08420831 176.5078125 149.12109375 C175.78078125 148.71117187 175.05375 148.30125 174.3046875 147.87890625 C166.18026546 143.75651433 155.46655127 141.60734244 146.59375 144.24609375 C139.25019947 147.32653442 134.77261673 151.34415675 130.69921875 158.16796875 C126.77680088 167.8904209 127.01334629 178.49492851 126.66992188 188.81933594 C126.60461538 190.60152247 126.53858064 192.38368244 126.47187805 194.16581726 C126.33018734 197.99324071 126.1936271 201.82079994 126.06111145 205.64855194 C125.85011151 211.74258901 125.62759404 217.83617404 125.40368652 223.92974854 C125.04925457 233.612693 124.70259049 243.29589772 124.35917997 252.97923875 C123.74824531 270.20092557 123.1252737 287.4221773 122.49787951 304.64327168 C122.27910565 310.65695663 122.06404625 316.67075902 121.85200739 322.68468499 C121.2199169 340.57339255 120.55341608 358.45989827 119.65142345 376.33734179 C119.57215506 377.91156002 119.49445671 379.48585839 119.41860676 381.06024504 C119.01506026 389.35194457 118.4298256 397.60294688 117.54553223 405.8583374 C117.42891873 406.97582631 117.42891873 406.97582631 117.3099494 408.11589074 C116.1192639 418.62545189 112.44867304 426.04808682 104.5078125 433.12109375 C101.94280622 434.84575512 99.40155607 436.05218031 96.5078125 437.12109375 C95.4559375 437.53359375 94.4040625 437.94609375 93.3203125 438.37109375 C83.59920575 440.28344262 74.33238967 439.86866262 65.5078125 435.12109375 C56.87967612 429.28836604 52.37621468 421.68243832 49.93525505 411.65207863 C49.02439082 406.25864367 49.23215958 400.79040932 49.27563477 395.33666992 C49.27860538 394.65198651 49.28157599 393.96730309 49.28463662 393.2618717 C49.37119805 374.38223554 50.25117866 355.52486375 51.09031367 336.66690469 C51.31656813 331.54656608 51.53459509 326.42587634 51.7535553 321.30522156 C52.16844045 311.62953894 52.59001161 301.95416092 53.0143314 292.27888793 C53.63399339 278.14278523 54.2436153 264.00624877 54.85301304 249.86970043 C54.94412566 247.7564105 55.03524064 245.64312066 55.12635803 243.52983093 C55.1709418 242.49548123 55.21552557 241.46113153 55.26146036 240.3954379 C55.52186282 234.35934608 55.78427768 228.32334616 56.04850703 222.28742069 C56.78578094 205.44108425 57.52272128 188.59521519 58.11157227 171.74291992 C58.17018763 170.07860034 58.17018763 170.07860034 58.22998714 168.38065815 C60.94055311 124.03854751 60.94055311 124.03854751 45.26171875 83.96875 C35.72092927 73.91798514 22.74320957 71.30449396 9.5078125 70.12109375 C-0.62113616 70.12109375 -10.31482527 72.57110897 -17.9921875 79.4765625 Z " fill="#000000" transform="translate(399.4921875,-0.12109375)"/>
<path d="M0 0 C4.42848856 0.0046381 8.85670283 -0.00234372 13.28515625 -0.02050781 C204.37323229 -0.7960614 204.37323229 -0.7960614 255.75073242 47.70629883 C263.14926734 55.8784071 265.62757348 65.5982667 265.14526367 76.50317383 C264.53178026 82.42916249 263.33413225 87.23405194 260.20776367 92.31567383 C259.84295898 92.92797852 259.4781543 93.5402832 259.10229492 94.17114258 C251.98219585 104.09546529 237.32483819 107.52545376 226.08242798 110.48696899 C222.23597228 111.50470804 218.4060953 112.58182318 214.57495117 113.65551758 C213.79185074 113.87431076 213.00875031 114.09310394 212.20191956 114.31852722 C150.26062789 131.74540438 91.6945903 159.88241365 42.20776367 201.31567383 C41.27843018 202.07460938 40.34909668 202.83354492 39.39160156 203.61547852 C28.1588023 212.90468479 17.98151108 223.27384604 7.72131348 233.60650635 C5.7769418 235.56175551 3.82694329 237.5113429 1.87682438 239.46085739 C-0.48311199 241.82113315 -2.83877981 244.18564453 -5.19458008 246.55004883 C-6.05510483 247.4116864 -6.91562958 248.27332397 -7.80223083 249.16107178 C-12.12462273 253.51729223 -16.3116851 257.93162543 -20.29589844 262.60038757 C-22.67868058 265.33182509 -25.26030951 267.84982262 -27.85473633 270.37817383 C-31.03987474 273.50697713 -34.14440466 276.62066026 -36.91723633 280.12817383 C-44.04350507 288.69641483 -55.25869587 294.50485456 -66.30004883 295.55395508 C-75.29909325 295.80915186 -83.03764899 293.90545055 -90.10473633 288.12817383 C-97.54536666 280.96199298 -102.20558848 272.72699163 -103.02661133 262.35473633 C-102.77568055 245.41690902 -91.03172382 231.78113686 -80.79223633 219.31567383 C-80.29224121 218.70530273 -79.79224609 218.09493164 -79.27709961 217.46606445 C-73.32058469 210.23558962 -67.12797281 203.21568684 -60.79223633 196.31567383 C-60.27790039 195.75090332 -59.76356445 195.18613281 -59.23364258 194.60424805 C-51.43680302 186.05338387 -43.43375345 178.01147089 -34.79223633 170.31567383 C-33.90149414 169.48680664 -33.01075195 168.65793945 -32.09301758 167.80395508 C-25.55667575 161.72563429 -18.72338743 156.18098106 -11.64916992 150.75317383 C-9.84361562 149.35544786 -8.06058542 147.93315343 -6.28051758 146.50317383 C27.68580882 119.51371448 66.11182165 98.76048288 104.20776367 78.31567383 C104.20776367 76.99567383 104.20776367 75.67567383 104.20776367 74.31567383 C103.1065408 74.319361 102.00531794 74.32304817 100.87072468 74.32684708 C74.04471997 74.41574362 47.21873443 74.4814235 20.39261341 74.52292252 C7.41956654 74.54352583 -5.55338288 74.57160387 -18.52636719 74.61743164 C-29.83690133 74.65736759 -41.14736488 74.68312285 -52.45796758 74.69202781 C-58.44387607 74.69723107 -64.42958264 74.70941433 -70.41542625 74.73859406 C-76.05673381 74.76586981 -81.69775744 74.77409426 -87.33912468 74.76810455 C-89.4025909 74.76919936 -91.46606724 74.77708029 -93.52947617 74.79249573 C-107.51270879 74.89178336 -120.71816153 74.85772338 -131.92114258 65.23754883 C-139.41624432 57.53903097 -141.17275074 48.94473431 -141.08764648 38.38208008 C-140.86549628 28.84501796 -138.5616456 21.2035848 -131.79223633 14.31567383 C-115.64551807 0.43516164 -87.84007563 2.24835773 -67.57739258 1.24536133 C-66.27563741 1.18062842 -66.27563741 1.18062842 -64.94758415 1.11458778 C-43.30474555 0.06900791 -21.66414329 -0.02458601 0 0 Z " fill="#000000" transform="translate(311.792236328125,513.684326171875)"/>
</svg>