<svg xmlns="http://www.w3.org/2000/svg" version="1.1" viewBox="-0.18 1.69 933.37 1027.78">
<path d="M0 0 C1.37454346 0.81247192 1.37454346 0.81247192 2.77685547 1.64135742 C3.58582275 2.1328125 4.39479004 2.62426758 5.22827148 3.13061523 C7.43944025 4.1937008 7.43944025 4.1937008 9.59545898 3.2109375 C12.18086799 1.44660485 14.48034183 -0.56274207 16.83544922 -2.62426758 C33.34518491 -16.64874894 52.58009442 -25.58167446 73.46044922 -31.06176758 C74.13495117 -31.2411084 74.80945313 -31.42044922 75.50439453 -31.60522461 C96.46834991 -36.85403194 122.55708229 -36.13455119 143.46044922 -31.06176758 C144.69279297 -30.78333008 145.92513672 -30.50489258 147.19482422 -30.21801758 C185.28184216 -20.89714399 221.05047432 1.10676669 241.73388672 35.02661133 C262.41448245 70.01911934 265.17852591 109.30942623 266.02685547 148.94213867 C266.04926615 149.98380629 266.07167683 151.0254739 266.09476662 152.0987072 C266.51404881 172.60073078 266.46944477 193.09267433 266.36020899 213.59711075 C266.338404 217.83157561 266.32039362 222.06605644 266.30197144 226.30053711 C266.28664388 229.73380629 266.27106497 233.16707428 266.25537109 236.6003418 C266.25147944 237.45520613 266.24758778 238.31007046 266.2435782 239.19083977 C266.1988867 248.85378463 266.14276736 258.51647868 266.06274414 268.17919922 C265.9980146 276.01016221 265.95509617 283.84092411 265.93658859 291.67213672 C265.92604373 295.76965631 265.90505688 299.86645508 265.85663414 303.96371651 C265.50711941 327.57755185 265.50711941 327.57755185 272.46044922 349.93823242 C273.37473459 352.36923341 274.19701658 354.81846943 275.02294922 357.28198242 C275.42433105 358.45220947 275.82571289 359.62243652 276.23925781 360.828125 C289.70508874 400.63605021 295.7129104 441.59442342 295.64794922 483.56323242 C295.64701263 484.36080963 295.64607605 485.15838684 295.64511108 485.98013306 C295.43620074 569.17687768 279.49020357 656.44386291 244.70068359 732.23168945 C243.59890739 734.63607744 242.5181552 737.04840431 241.44482422 739.46557617 C221.08324195 784.73715261 190.28645006 825.02354203 155.48474121 860.08917236 C154.48556061 861.09639474 153.48786481 862.10509273 152.49182129 863.11541748 C145.83210616 869.86039812 138.87514892 876.02130805 131.46044922 881.93823242 C130.37059563 882.8615806 129.28596596 883.79119242 128.21044922 884.73120117 C74.5887436 931.421692 7.36264902 962.03846513 -61.53955078 977.93823242 C-62.58095215 978.1812207 -63.62235352 978.42420898 -64.6953125 978.67456055 C-84.39744485 983.181941 -104.4754813 985.67108661 -124.53955078 987.93823242 C-125.73338379 988.07390625 -126.9272168 988.20958008 -128.15722656 988.34936523 C-230.61407756 999.24087058 -344.84289834 983.11495703 -469.44677734 906.4128418 C-473.21114893 903.32941129 -476.8857583 900.15149673 -480.53955078 896.93823242 C-481.27302734 896.30401367 -482.00650391 895.66979492 -482.76220703 895.01635742 C-484.69995722 893.3367171 -486.62142582 891.64023063 -488.53955078 889.93823242 C-489.29365234 889.27694336 -490.04775391 888.6156543 -490.82470703 887.93432617 C-500.30226281 879.53820306 -509.45199512 870.6951633 -517.53955078 860.93823242 C-517.98347168 860.40810547 -518.42739258 859.87797852 -518.88476562 859.33178711 C-537.37646348 837.1991439 -553.04712651 813.42510315 -566.53955078 787.93823242 C-567.1844043 786.72441895 -567.1844043 786.72441895 -567.84228516 785.48608398 C-585.69894374 751.58450078 -598.81871371 714.94989759 -608.53955078 677.93823242 C-608.87051758 676.68413574 -609.20148437 675.43003906 -609.54248047 674.13793945 C-626.2222652 610.43340016 -632.08666218 544.57317997 -634.53955078 478.93823242 C-634.56641968 478.23375977 -634.59328857 477.52928711 -634.62097168 476.8034668 C-635.38679517 456.58668833 -635.69709006 436.35719652 -636.03173828 416.12963867 C-636.05356108 414.81146967 -636.07538387 413.49330067 -636.09786797 412.13518715 C-636.55373933 384.37845103 -636.8301131 356.62098672 -637.04223633 328.86132812 C-637.0817153 323.69529216 -637.12338371 318.52928194 -637.16723633 313.36328125 C-637.30762704 296.82212703 -637.42620229 280.28099281 -637.51773834 263.73949432 C-637.53989821 259.87768643 -637.5648158 256.01590285 -637.59002686 252.15411377 C-637.63029465 245.78572176 -637.65847253 239.41737065 -637.67832756 233.04888344 C-637.68718884 230.6829299 -637.69945545 228.31698599 -637.71557808 225.95107079 C-638.02332874 179.04693327 -628.92372281 135.42882713 -596.53955078 99.93823242 C-595.67587891 98.99077148 -594.81220703 98.04331055 -593.92236328 97.06713867 C-576.28063014 78.61399051 -553.15808005 66.24276475 -528.53955078 59.93823242 C-527.36779297 59.62499023 -526.19603516 59.31174805 -524.98876953 58.98901367 C-507.78849894 54.84558774 -489.66464604 54.08255156 -472.10205078 55.75073242 C-471.16337158 55.83548828 -470.22469238 55.92024414 -469.25756836 56.00756836 C-461.88881489 56.71153039 -454.59591413 57.75543362 -447.32495117 59.1484375 C-440.91419488 60.25865745 -435.26136768 60.06746411 -429.49755859 56.77001953 C-424.06702894 52.90280394 -419.5742861 48.04484067 -414.97705078 43.25073242 C-389.24080176 17.11874405 -355.3700535 2.09378271 -318.54150391 1.6965332 C-291.172834 1.63598305 -267.15195345 6.62022219 -242.13769531 17.78979492 C-238.7607726 19.28246965 -235.36763048 20.73602996 -231.97314453 22.18823242 C-231.0246035 22.59404541 -231.0246035 22.59404541 -230.05690002 23.00805664 C-228.55128227 23.65183535 -227.04544068 24.29509055 -225.53955078 24.93823242 C-224.93071045 24.31891846 -224.32187012 23.69960449 -223.69458008 23.06152344 C-221.38209929 20.71447903 -219.0648206 18.3723733 -216.74438477 16.03320312 C-215.75063252 15.02953734 -214.75869788 14.02406788 -213.76879883 13.01660156 C-207.04082186 6.17244825 -200.12036923 -0.14776442 -192.53955078 -6.06176758 C-191.86545166 -6.58971924 -191.19135254 -7.1176709 -190.49682617 -7.66162109 C-129.15966934 -54.96616567 -61.92478854 -37.68606329 0 0 Z M-160.53955078 57.93823242 C-161.16603516 58.54022461 -161.79251953 59.1422168 -162.43798828 59.76245117 C-179.78703831 77.85727485 -181.70142125 103.30898749 -183.53955078 126.93823242 C-183.63333008 128.09532715 -183.72710937 129.25242187 -183.82373047 130.44458008 C-186.88297909 169.46932739 -187.2063918 208.81546355 -188.16455078 247.93823242 C-188.18510529 248.76402802 -188.20565979 249.58982361 -188.22683716 250.44064331 C-188.48420374 260.94186479 -188.58785057 271.43392353 -188.53955078 281.93823242 C-186.88955078 282.59823242 -185.23955078 283.25823242 -183.53955078 283.93823242 C-183.11287109 283.54893555 -182.68619141 283.15963867 -182.24658203 282.75854492 C-142.27337716 246.98870798 -92.00080529 230.95182507 -39.17602539 226.10131836 C-33.66697565 225.52370606 -29.80268024 224.78858268 -25.53955078 220.93823242 C-23.1223027 216.46187373 -23.19841063 212.10301754 -23.12890625 207.1418457 C-23.10910706 206.26432144 -23.08930786 205.38679718 -23.06890869 204.48268127 C-23.00567994 201.57474493 -22.95605814 198.66674786 -22.90673828 195.75854492 C-22.86549317 193.71001718 -22.82349789 191.66150441 -22.78079224 189.61300659 C-22.69282073 185.30060621 -22.61105699 180.98814933 -22.53417969 176.67553711 C-22.43728927 171.24396867 -22.32979371 165.81268345 -22.21830368 160.38139725 C-22.00598857 150.02642436 -21.81883485 139.67140298 -21.66715622 129.31535721 C-21.59060818 124.09394908 -21.49981517 118.87328751 -21.38934898 113.65249062 C-21.32065561 110.16198928 -21.27931934 106.67131246 -21.23486328 103.18041992 C-21.18952957 101.4091423 -21.18952957 101.4091423 -21.14328003 99.6020813 C-21.04279877 86.23929415 -25.01245696 76.1191576 -33.53955078 65.93823242 C-34.24337891 65.08358398 -34.94720703 64.22893555 -35.67236328 63.34838867 C-50.44729593 46.16392399 -69.86545065 35.1091569 -92.53955078 32.93823242 C-118.31730613 31.05860443 -142.16492392 39.91089232 -160.53955078 57.93823242 Z M64.77294922 51.56323242 C47.20104596 73.19331196 47.44282834 105.90091844 47.10888672 132.34057617 C47.08568661 133.99239867 47.0622961 135.6442185 47.03872681 137.29603577 C46.99063889 140.73752815 46.94567452 144.17904394 46.90283203 147.62060547 C46.848046 151.99200192 46.78411829 156.36321016 46.71765709 160.73444271 C46.66714205 164.13968322 46.62221504 167.54498134 46.57881546 170.95031929 C46.55752809 172.56039527 46.53443199 174.17044856 46.50934982 175.78046989 C45.03340616 196.83903811 45.03340616 196.83903811 52.58544922 215.25073242 C60.11685457 219.67133991 68.27674058 220.60237773 76.81201172 221.66088867 C91.23064206 223.63533208 104.89316737 227.2881594 118.83544922 231.37573242 C121.30057967 232.08431615 123.76616402 232.79132253 126.23217773 233.49682617 C132.44246998 235.27786652 138.64683405 237.07858801 144.8493042 238.88665771 C151.65967037 240.86985384 158.47499207 242.83593231 165.28979492 244.80381775 C170.25481443 246.2381162 175.21850477 247.67657604 180.17871094 249.12744141 C181.06912582 249.38698105 181.95954071 249.64652069 182.87693787 249.91392517 C184.52801803 250.39535223 186.17850078 250.87883486 187.82826233 251.36476135 C191.58180728 252.52530994 191.58180728 252.52530994 195.46044922 252.93823242 C195.50731025 234.92629989 195.54250685 216.91438333 195.56407356 198.90240288 C195.57435653 190.5378604 195.58835942 182.17335595 195.61132812 173.80883789 C195.63135374 166.51258667 195.64418727 159.21636301 195.64862621 151.92008507 C195.65121816 148.06198278 195.65724716 144.20395928 195.67190933 140.34588242 C195.68563873 136.70320673 195.68964138 133.06064115 195.68666458 129.41794205 C195.68746407 127.46684604 195.69814436 125.5157616 195.70928955 123.56469727 C195.65696205 100.77808259 189.77189526 81.18219107 174.46044922 63.93823242 C173.86876953 63.25245117 173.27708984 62.56666992 172.66748047 61.86010742 C157.93293484 45.90030107 134.7793072 37.06027758 113.46044922 35.93823242 C112.69732422 35.89698242 111.93419922 35.85573242 111.14794922 35.81323242 C94.09348749 35.3644308 76.86595185 38.80868698 64.77294922 51.56323242 Z M-363.31298828 90.55541992 C-391.64380027 120.87435906 -389.58314187 167.39051138 -390.60400391 206.11260986 C-390.70645407 209.94199464 -390.81674547 213.77115397 -390.92626953 217.6003418 C-391.13813408 225.04611184 -391.34168258 232.49207584 -391.53955078 239.93823242 C-390.87955078 239.93823242 -390.21955078 239.93823242 -389.53955078 239.93823242 C-389.54843323 240.90050751 -389.55731567 241.86278259 -389.56646729 242.85421753 C-389.64818318 252.00198461 -389.70781457 261.14967594 -389.74679947 270.29772758 C-389.76751699 274.99885353 -389.79553815 279.6996807 -389.84130859 284.40063477 C-389.88534024 288.95241276 -389.90880629 293.50390667 -389.91905975 298.0558815 C-389.92634986 299.77710558 -389.94057917 301.49831728 -389.96247101 303.21941757 C-390.28100179 329.34331758 -383.40382808 351.57744192 -365.10205078 370.75073242 C-349.65711086 385.53108801 -329.93145777 394.64685512 -308.46655273 394.41137695 C-293.6612196 393.85404932 -281.62035948 387.56545252 -270.93017578 377.54760742 C-261.18275686 366.90826781 -255.37522048 352.9100645 -255.44189453 338.47314453 C-255.44678894 336.51627213 -255.44678894 336.51627213 -255.45178223 334.51986694 C-255.45589615 333.8214204 -255.46001007 333.12297386 -255.46424866 332.40336227 C-255.47733942 330.16625011 -255.4842418 327.92919041 -255.48962402 325.69204712 C-255.49792367 322.45534095 -255.50863911 319.21865637 -255.52124023 315.98196411 C-255.55406514 307.25647652 -255.56576741 298.53096369 -255.57080078 289.80541992 C-255.57134964 288.91665979 -255.5718985 288.02789967 -255.57246399 287.11220741 C-255.57766569 271.55536156 -255.39446171 256.00931726 -255.11065674 240.45504761 C-254.61171026 212.70784146 -254.32114936 184.95702705 -254.21131516 157.20561314 C-254.1884995 151.45909184 -254.15763579 145.71291782 -254.10522461 139.96658325 C-254.05624201 134.53661933 -254.03186773 129.107077 -254.0257225 123.67690086 C-254.01939145 121.66148495 -254.00451778 119.64607503 -253.98047256 117.63079262 C-253.42233109 102.91127867 -253.42233109 102.91127867 -259.53955078 89.93823242 C-286.97715451 65.35393411 -336.92631999 66.03353384 -363.31298828 90.55541992 Z M-540.53955078 144.93823242 C-541.35810547 145.65366211 -542.17666016 146.3690918 -543.02001953 147.10620117 C-557.70494943 160.72475189 -565.54036463 180.99716655 -566.70849991 200.802742 C-566.98379054 208.87987185 -566.93481735 216.95920339 -566.90283203 225.03979492 C-566.90231222 227.6513977 -566.9028346 230.26300088 -566.90434265 232.87460327 C-566.90521965 238.32262389 -566.89426901 243.77051867 -566.87573242 249.21850586 C-566.85455266 255.47838313 -566.85106311 261.73807675 -566.85729438 267.99798262 C-566.86302742 274.07311846 -566.85718892 280.14818066 -566.84612083 286.22330856 C-566.84229772 288.78511677 -566.8411085 291.34693043 -566.84270668 293.908741 C-566.84557612 321.40549539 -564.52850302 346.8555039 -544.25830078 367.28979492 C-543.36111328 368.1637793 -542.46392578 369.03776367 -541.53955078 369.93823242 C-540.78673828 370.6884668 -540.03392578 371.43870117 -539.25830078 372.21166992 C-522.73520607 387.83677036 -501.71548053 392.48271698 -479.71923828 392.21557617 C-466.91948737 391.82350821 -455.86530687 387.75625781 -444.53955078 381.93823242 C-446.32515746 374.49635613 -448.19398186 367.09119707 -450.29345703 359.73120117 C-450.6014624 358.65088623 -450.90946777 357.57057129 -451.22680664 356.45751953 C-451.83769721 354.32775238 -452.4541235 352.19956283 -453.0769043 350.07324219 C-453.36621826 349.06447021 -453.65553223 348.05569824 -453.95361328 347.01635742 C-454.21094238 346.13367188 -454.46827148 345.25098633 -454.73339844 344.34155273 C-456.82984542 335.49101641 -457.88287985 326.71760661 -458.15673828 317.63745117 C-458.19427216 316.50748215 -458.23180603 315.37751312 -458.27047729 314.21330261 C-458.80896251 295.48529853 -458.68945401 276.74094828 -458.6675148 258.00723648 C-458.66452616 254.72368308 -458.66427669 251.44014028 -458.66488647 248.15658569 C-458.66793617 226.26874218 -458.6351263 204.3849625 -458.20751953 182.50073242 C-458.18579681 181.3583439 -458.18579681 181.3583439 -458.16363525 180.19287682 C-458.04284433 173.87472037 -457.92014427 167.55671022 -457.74102783 161.23989868 C-457.63748569 157.5731236 -457.5506644 153.9062487 -457.46533203 150.23901367 C-457.42796432 149.1947522 -457.39059662 148.15049072 -457.35209656 147.07458496 C-457.22341657 140.93867247 -457.88788763 136.50660546 -460.53955078 130.93823242 C-468.81414986 123.41586963 -485.3753084 125.34536654 -495.70849609 125.75170898 C-512.16016347 126.8356236 -528.34634238 133.84723495 -540.53955078 144.93823242 Z M-127.02783203 329.26635742 C-127.85669922 330.14807617 -128.68556641 331.02979492 -129.53955078 331.93823242 C-130.21373047 332.65495117 -130.88791016 333.37166992 -131.58251953 334.11010742 C-142.47129057 346.89780322 -147.34299072 364.20952652 -146.82470703 380.81713867 C-144.80424132 402.93155108 -136.28091373 423.74305081 -118.96679688 438.2565918 C-102.17349889 451.45388354 -84.43420173 454.38155998 -63.75123024 454.34892273 C-60.61558372 454.34438326 -57.48048364 454.35861769 -54.34489441 454.37731934 C-47.6806217 454.41384916 -41.01640876 454.42775804 -34.35205078 454.43823242 C-26.63550179 454.4503957 -18.91922344 454.47234694 -11.20279503 454.51823425 C-8.14662271 454.53159959 -5.09081117 454.52767123 -2.03462219 454.52282715 C22.09118531 454.58854098 45.99320991 458.00340364 64.27294922 475.25073242 C87.65623379 499.97020469 81.6308142 543.07258274 81.59082031 574.51586914 C81.58628259 578.1164719 81.58623637 581.71702426 81.59082031 585.31762695 C81.61269219 602.50456422 81.61558287 619.69413234 81.14013672 636.87573242 C81.11815216 637.96982422 81.0961676 639.06391602 81.07351685 640.19116211 C80.72106761 650.48003502 78.89439281 658.50453313 71.63623047 666.02807617 C68.48364403 668.79578671 65.40019583 670.53726162 61.46044922 671.93823242 C60.83525391 672.16124023 60.21005859 672.38424805 59.56591797 672.61401367 C49.29151824 675.69005595 39.21049934 674.05112419 29.46044922 669.93823242 C27.17005528 668.42417051 25.43759616 666.86194296 23.46044922 664.93823242 C22.80044922 664.93823242 22.14044922 664.93823242 21.46044922 664.93823242 C21.18330078 664.38135742 20.90615234 663.82448242 20.62060547 663.25073242 C19.82417301 661.66323069 19.01900199 660.08009202 18.20654297 658.50073242 C17.77470703 657.65510742 17.34287109 656.80948242 16.89794922 655.93823242 C16.46353516 655.09260742 16.02912109 654.24698242 15.58154297 653.37573242 C13.44084388 648.72139016 13.17756932 644.1676451 12.91552734 639.09741211 C12.87363533 638.30912395 12.83174332 637.5208358 12.78858185 636.70866013 C12.34372628 627.62269854 12.26196354 618.53495497 12.2000885 609.43967438 C12.17865045 606.3112778 12.15168121 603.18296839 12.12341309 600.05462646 C12.054409 592.30412324 11.9940565 584.55355845 11.93438721 576.80297852 C11.88337131 570.20730109 11.82859547 563.61167694 11.76856995 557.01607513 C11.7421325 553.94174298 11.72125525 550.86740515 11.70056152 547.79302979 C11.68396007 545.91076407 11.66708836 544.02850071 11.64990234 542.14624023 C11.64571793 541.2984198 11.64153351 540.45059937 11.63722229 539.5770874 C11.59159968 535.25744944 11.31696279 531.19220699 10.46044922 526.93823242 C1.05117672 528.14842223 -8.3571694 529.36554071 -17.76450634 530.59068584 C-22.13630122 531.15983399 -26.50834213 531.72689598 -30.88110352 532.28857422 C-110.44346832 542.51522574 -183.85879709 562.05548962 -251.53955078 606.93823242 C-252.27641113 607.42533691 -253.01327148 607.91244141 -253.77246094 608.41430664 C-264.37931638 615.46333804 -274.51090018 623.09380155 -284.53955078 630.93823242 C-285.94333984 632.03458008 -285.94333984 632.03458008 -287.37548828 633.15307617 C-296.91580975 640.70197132 -306.18219614 648.6029262 -315.17626953 656.79370117 C-316.68700568 658.16460059 -318.20945679 659.52276988 -319.74658203 660.86401367 C-323.89794091 664.50617691 -327.86077879 668.23784682 -331.71533203 672.19213867 C-356.63846575 697.75159639 -356.63846575 697.75159639 -374.97705078 698.37573242 C-385.90720726 698.09211559 -392.5117796 694.82807439 -400.40283203 687.32104492 C-406.68392109 680.31653976 -407.90708785 672.84483145 -407.81298828 663.70776367 C-406.36263634 643.71362615 -389.60605151 629.94901203 -376.35205078 616.62573242 C-375.6039917 615.87291992 -374.85593262 615.12010742 -374.08520508 614.34448242 C-369.95922787 610.23079168 -365.74309317 606.28833438 -361.32836914 602.48632812 C-358.96927563 600.44469963 -356.69615163 598.31577019 -354.41455078 596.18823242 C-349.20670398 591.43947955 -343.76255475 587.08590051 -338.18798828 582.77807617 C-335.7689131 580.90726443 -333.38102604 579.00594694 -331.01611328 577.06713867 C-290.85946905 544.19273053 -244.46526445 520.67044177 -197.03173828 500.26635742 C-196.34110794 499.96890121 -195.6504776 499.67144501 -194.93891907 499.36497498 C-191.62394439 497.93832449 -188.30629562 496.51867866 -184.98266602 495.11230469 C-183.8013208 494.60755615 -182.61997559 494.10280762 -181.40283203 493.58276367 C-179.84495972 492.92304565 -179.84495972 492.92304565 -178.25561523 492.25 C-175.73465737 491.03246233 -173.70105088 489.70432434 -171.53955078 487.93823242 C-172.15958984 486.98948242 -172.77962891 486.04073242 -173.41845703 485.06323242 C-179.02751969 476.45166517 -184.538901 467.78378114 -189.97705078 459.06323242 C-190.60909424 458.04970703 -191.2411377 457.03618164 -191.89233398 455.99194336 C-193.15805212 453.96200277 -194.42375863 451.93205494 -195.68945312 449.90209961 C-198.54666933 445.32482266 -201.41430216 440.75420037 -204.28955078 436.18823242 C-204.77866943 435.40851074 -205.26778809 434.62878906 -205.77172852 433.82543945 C-207.91271926 430.43006572 -210.04887566 427.09308758 -212.53955078 423.93823242 C-216.22133556 425.55228499 -219.0466239 427.85802661 -222.16455078 430.37573242 C-242.62284947 446.43996494 -265.9101987 457.33490219 -291.53955078 461.93823242 C-292.56435547 462.12385742 -293.58916016 462.30948242 -294.64501953 462.50073242 C-324.01818597 465.80042614 -362.25791219 460.88386004 -387.01220703 443.16870117 C-394.79826941 439.37795983 -404.28081081 442.81103105 -412.14099121 444.90054321 C-414.21668806 445.45208606 -416.29586814 445.98825424 -418.37646484 446.52099609 C-422.03460614 447.45981043 -425.68953154 448.41050706 -429.34362793 449.3649292 C-484.72349357 463.82329481 -484.72349357 463.82329481 -510.32080078 459.73901367 C-511.13368057 459.60967941 -511.94656036 459.48034515 -512.78407288 459.34709167 C-522.33198205 457.74593557 -531.63596798 455.26252297 -540.97705078 452.75073242 C-543.58912555 452.0538412 -546.20186315 451.35975464 -548.81617737 450.67131042 C-550.42136552 450.24812094 -552.02524797 449.81993624 -553.62754822 449.38594055 C-557.08455317 448.47011562 -559.93552052 447.93823242 -563.53955078 447.93823242 C-564.52109472 497.56073137 -560.22637656 547.93948612 -552.53955078 596.93823242 C-552.43253845 597.62520203 -552.32552612 598.31217163 -552.215271 599.0199585 C-544.8323489 646.11453911 -531.89688238 692.35117364 -512.53955078 735.93823242 C-512.14171387 736.84154297 -511.74387695 737.74485352 -511.33398438 738.67553711 C-479.70996415 809.87413315 -422.04881839 864.37766036 -349.62939453 892.71166992 C-246.73217801 931.32457081 -128.37700254 928.27716081 4.46044922 879.93823242 C5.70689209 879.38619141 5.70689209 879.38619141 6.97851562 878.82299805 C32.55884688 867.41299243 56.65696304 852.51298194 78.46044922 834.93823242 C79.38728516 834.2034668 80.31412109 833.46870117 81.26904297 832.71166992 C99.10753885 818.39026756 116.51828738 802.10287757 130.46044922 783.93823242 C131.37994821 782.81541859 132.30342358 781.69585412 133.22998047 780.57885742 C151.46851151 758.48035118 165.62061037 733.46224875 178.46044922 707.93823242 C178.89599121 707.08181152 179.3315332 706.22539063 179.78027344 705.34301758 C202.04473184 661.33625839 214.4896904 612.72753769 220.46044922 563.93823242 C220.54401672 563.25643921 220.62758423 562.574646 220.71368408 561.87219238 C225.68425488 520.53952196 224.89029561 478.2815422 220.46044922 436.93823242 C220.38312561 436.21271179 220.305802 435.48719116 220.22613525 434.73968506 C215.82634199 393.91893821 206.10187923 357.69620845 173.40185547 330.38354492 C141.97172785 305.21464588 101.1614159 290.95033589 60.92529297 290.73510742 C59.58143776 290.72465393 59.58143776 290.72465393 58.21043396 290.71398926 C55.27289134 290.69651277 52.33554196 290.69024971 49.39794922 290.68823242 C47.87019867 290.6867218 47.87019867 290.6867218 46.31158447 290.68518066 C-46.66591364 289.46251334 -46.66591364 289.46251334 -127.02783203 329.26635742 Z " fill="#000000" transform="translate(637.53955078125,38.061767578125)"/>
</svg>