<svg xmlns="http://www.w3.org/2000/svg" version="1.1" viewBox="-0.38 -0.91 799.54 1025.43">
<path d="M0 0 C1.00643555 0.31348389 1.00643555 0.31348389 2.03320312 0.63330078 C16.80634215 5.34250341 30.35048376 12.74444296 42 23 C43.20849609 24.01126953 43.20849609 24.01126953 44.44140625 25.04296875 C61.69006721 39.86224085 73.85663978 59.38385273 81.25 80.8125 C81.60118896 81.80479614 81.60118896 81.80479614 81.95947266 82.81713867 C87.33979814 99.22616717 88.04142164 116.81968269 89.50579834 133.90042114 C90.12682009 141.13618163 90.77682791 148.36932362 91.4375 155.6015625 C91.50245541 156.31312311 91.56741081 157.02468372 91.63433456 157.75780678 C93.23962133 175.2409747 95.42862597 192.63373362 98 210 C100.35511299 206.46733052 101.51611984 202.83006417 102.8359375 198.8359375 C103.40406049 197.15076863 103.97327793 195.46596843 104.54345703 193.78149414 C104.84173401 192.8984964 105.14001099 192.01549866 105.44732666 191.10574341 C119.66690325 149.2483208 139.07352342 112.35825209 179.6484375 91.0390625 C190.72635017 85.6060778 203.68093649 81.16374419 216 80 C216.65049316 79.93586914 217.30098633 79.87173828 217.97119141 79.80566406 C252.59366375 76.6003056 288.33933402 86.28672136 315.60375977 108.31713867 C340.66221026 129.47261893 354.60533046 159.86610913 357.6875 192.25 C357.81058721 194.16554466 357.91535986 196.08237182 358 198 C358.061875 199.35544922 358.061875 199.35544922 358.125 200.73828125 C358.40643464 213.45560908 356.88974463 226.16020213 353.8984375 238.5078125 C353.68257492 239.40371597 353.46671234 240.29961945 353.24430847 241.22267151 C350.35977151 252.91726988 346.84032859 264.42416788 343.3125 275.9375 C342.94617462 277.13821136 342.57984924 278.33892273 342.2024231 279.57601929 C331.01516722 316.19484129 318.98928804 352.48257871 305.49829102 388.31787109 C285.58310697 441.22242474 276.7582882 493.17187437 279.7578125 549.640625 C279.79918209 550.42037626 279.84055168 551.20012753 279.8831749 552.00350761 C280.70580797 567.2683262 281.79952961 582.51035516 282.9453125 597.75390625 C283.03283783 598.92024282 283.12036316 600.0865794 283.21054077 601.28825951 C284.02894218 612.17745735 284.8564367 623.06595533 285.69189453 633.95385742 C286.15444731 639.98721525 286.60959289 646.02109705 287.06042099 652.05534172 C287.23062069 654.31376355 287.40356406 656.57198068 287.57956314 658.82995796 C294.34246102 745.62733959 268.11845369 829.26454156 212 896 C211.1249062 897.06242275 210.24991111 898.1249268 209.375 899.1875 C198.92178433 911.75777683 187.5376052 923.83252239 174.63671875 933.91796875 C172.23382104 935.81536798 169.93101171 937.79653911 167.63256836 939.81811523 C137.86394846 965.78175838 101.14350137 984.2269199 64 997 C63.04577148 997.33306152 62.09154297 997.66612305 61.10839844 998.00927734 C-22.17798742 1026.82406504 -112.74122021 1033.02164244 -253.67504883 986.24462891 C-273.45494388 976.4496865 -292.08874167 964.18534345 -309 950 C-309.49999512 949.58878906 -309.99999023 949.17757812 -310.51513672 948.75390625 C-324.29141337 937.41405431 -337.00096975 925.067522 -348 911 C-349.03060547 909.78763672 -349.03060547 909.78763672 -350.08203125 908.55078125 C-362.19654896 894.29712348 -371.97637472 878.3354058 -381 862 C-381.4237793 861.24283691 -381.84755859 860.48567383 -382.28417969 859.70556641 C-413.29861807 804.05360145 -425.41287208 739.69329193 -432 677 C-432.08638733 676.17904846 -432.17277466 675.35809692 -432.26177979 674.51226807 C-433.66667569 660.98960127 -434.73425708 647.44642973 -435.71557617 633.887146 C-435.91303113 631.18858078 -436.11373354 628.4904613 -436.31958008 625.7925415 C-439.93718356 578.36657493 -441.46297558 531.13019334 -441.375 483.5625 C-441.37302109 482.33285397 -441.37104218 481.10320793 -441.3690033 479.8362999 C-441.32701684 457.14428548 -441.24586329 434.44854997 -440.55078125 411.765625 C-440.51459686 410.57405289 -440.47841248 409.38248077 -440.44113159 408.15480042 C-439.25384774 375.41118404 -426.72261433 346.56170644 -404 323 C-403.34386719 322.28070313 -402.68773437 321.56140625 -402.01171875 320.8203125 C-387.59942148 305.45131027 -367.95713564 296.62835047 -348 291 C-346.79859375 290.65839844 -345.5971875 290.31679688 -344.359375 289.96484375 C-327.06928136 285.9417159 -307.4007568 286.76675827 -289.98046875 289.60546875 C-279.38115155 291.00852385 -270.81472497 288.05991899 -262.4375 281.6875 C-259.61456955 279.40389017 -256.92350479 277.01741635 -254.25 274.5625 C-226.20568996 249.89235744 -188.01731717 250.59256679 -153 251 C-153.10489746 249.30931396 -153.10489746 249.30931396 -153.21191406 247.58447266 C-154.87720922 220.64987922 -156.43703722 193.7095664 -157.91516113 166.76409912 C-158.09538996 163.47985638 -158.27750958 160.19572724 -158.46130371 156.91168213 C-158.68115491 152.98038585 -158.89676352 149.04887758 -159.10934639 145.11718178 C-159.18835678 143.66730511 -159.26870148 142.21750037 -159.35056877 140.76778221 C-161.50280051 102.55432112 -156.31184905 65.85593924 -130.02905273 36.25732422 C-114.08326106 18.95538425 -93.79350547 7.13512847 -71.25 0.625 C-70.42371094 0.3863623 -69.59742188 0.14772461 -68.74609375 -0.09814453 C-46.90609265 -6.04395586 -21.68539179 -7.01175329 0 0 Z M-76.0703125 83.62890625 C-89.72780149 100.41047674 -89.57094124 119.86180647 -88.38916016 140.4050293 C-88.32409775 141.58272385 -88.25903534 142.7604184 -88.19200134 143.97380066 C-87.97755135 147.84079237 -87.75836683 151.70749955 -87.5390625 155.57421875 C-87.38628772 158.30292854 -87.23447341 161.03169157 -87.08261108 163.76045227 C-86.76366047 169.48227256 -86.44226564 175.2039511 -86.11914062 180.92553711 C-85.79138893 186.72914252 -85.46540005 192.53284258 -85.14160156 198.33666992 C-85.10203032 199.04592554 -85.06245907 199.75518116 -85.0216887 200.48592937 C-84.94208937 201.91279056 -84.86249388 203.33965197 -84.78290224 204.76651359 C-84.06243462 217.67949191 -83.33373057 230.59197436 -82.59656143 243.50401115 C-82.23610464 249.82274986 -81.88029745 256.14168461 -81.5346241 262.46124935 C-81.36444701 265.5559259 -81.18932963 268.65030545 -81.01249313 271.74460793 C-80.90467827 273.6587338 -80.80329193 275.57321863 -80.70230103 277.48771667 C-80.0884001 292.12120597 -80.0884001 292.12120597 -74.375 305.25 C-57.64704644 330.78054757 -49.99560193 360.63038541 -49.79467773 391.03955078 C-49.78477814 391.98710739 -49.77487854 392.934664 -49.76467896 393.91093445 C-49.73339301 397.00570276 -49.70843837 400.10048636 -49.68359375 403.1953125 C-49.66299571 405.35578788 -49.64199854 407.51625949 -49.62062073 409.67672729 C-49.56569416 415.33517381 -49.51615639 420.9936549 -49.46777344 426.65216064 C-49.41734227 432.43740886 -49.36176956 438.22260748 -49.30664062 444.0078125 C-49.19941938 455.33849921 -49.09789592 466.66922915 -49 478 C-47.39965415 477.68243789 -45.79944548 477.36418438 -44.19929504 477.04563904 C-43.30816419 476.86848578 -42.41703333 476.69133253 -41.49889851 476.508811 C-38.67395492 475.93361262 -35.87387438 475.28514639 -33.07421875 474.59765625 C-9.69831459 468.96229603 13.12664193 465.76862296 37.1875 465.75 C37.97757446 465.74932526 38.76764893 465.74865051 39.58166504 465.74795532 C100.65664789 465.83025625 155.81808391 488.38480919 206 522 C206.20551987 520.57443535 206.20551987 520.57443535 206.41519165 519.12007141 C207.72854482 510.01845512 209.05144585 500.91826726 210.38294411 491.8192873 C211.0666536 487.14506344 211.74736345 482.47044983 212.42041016 477.79467773 C220.40529669 422.36780114 220.40529669 422.36780114 227.9375 397.5625 C228.30536621 396.32467773 228.67323242 395.08685547 229.05224609 393.81152344 C238.53101206 362.17930306 249.30597386 330.9495588 260.26147461 299.80514526 C263.30348057 291.15116629 266.30898422 282.48484731 269.28826904 273.80908203 C269.8327253 272.22523817 270.37859031 270.64187765 270.92608643 269.05908203 C273.69379527 261.05587958 276.35264108 253.0344883 278.7578125 244.9140625 C278.95907745 244.23717377 279.16034241 243.56028503 279.3677063 242.86288452 C285.62481885 221.35457974 289.65560141 195.0736034 279.375 174.3125 C272.08776942 161.88660805 260.75492265 154.64982106 247 151 C231.1934842 147.220181 215.59239252 151.95552279 202 160 C186.73603439 170.03060597 181.37840339 190.10504641 176 206.546875 C175.44251075 208.23165425 174.88429671 209.91619381 174.32540894 211.60050964 C173.14969808 215.14805276 171.97846243 218.6970264 170.81097412 222.24728394 C168.67195302 228.75120189 166.51798876 235.25014214 164.36338425 241.7489109 C162.88803815 246.19910477 161.41388011 250.6496735 159.94458008 255.10186768 C155.00649005 270.0543477 149.93923797 284.96157595 144.8046875 299.84765625 C141.69997463 308.87294823 138.68052473 317.92633872 135.66025162 326.98012733 C133.96609295 332.05483599 132.2663064 337.12766342 130.56673241 342.20056057 C128.87428349 347.25453331 127.19087296 352.31140202 125.51391411 357.37053394 C124.45638686 360.55340023 123.39005214 363.73326742 122.32149887 366.91244698 C121.82339399 368.40035903 121.32887882 369.88947862 120.83832169 371.37989616 C115.86574538 386.47511032 110.13989698 400.75565442 95.57421875 408.74609375 C85.20412864 413.79738195 73.1932172 414.82644766 61.8984375 412.30859375 C59.42251596 411.39257944 57.26590629 410.35026073 55 409 C54.29746094 408.5875 53.59492188 408.175 52.87109375 407.75 C43.05567439 401.19397037 37.71571481 390.53343468 35.43684387 379.19903564 C34.00624043 370.14745931 33.3812784 361.12162976 32.88671875 351.984375 C32.79186901 350.31990275 32.69641845 348.65546464 32.60041809 346.99105835 C32.39638979 343.43581119 32.19601815 339.88038474 31.99853516 336.32476807 C31.68340973 330.65732995 31.35833272 324.99048958 31.03125 319.32373047 C30.91915082 317.3800969 30.8070598 315.43646287 30.69497681 313.49282837 C30.63905994 312.52335896 30.58314308 311.55388954 30.52553177 310.55504227 C30.35452074 307.58509842 30.18425732 304.61511265 30.01425171 301.64511108 C26.25174649 235.8732562 26.25174649 235.8732562 21.53158569 170.16487885 C21.37929611 168.24175173 21.22808455 166.31853935 21.0769043 164.39532471 C20.02863105 151.16142696 18.84288888 137.9460326 17.46484375 124.7421875 C17.34615936 123.58273117 17.22747498 122.42327484 17.10519409 121.22868347 C15.25637082 104.02567419 10.19685896 88.89947191 -3 77 C-24.88348731 60.92789522 -57.48815338 63.44718398 -76.0703125 83.62890625 Z M-210 332 C-210.55300781 332.52464844 -211.10601562 333.04929687 -211.67578125 333.58984375 C-219.07988237 341.39813898 -221.10899597 351.31266685 -221.14717102 361.78419495 C-221.15084771 362.44168462 -221.1545244 363.0991743 -221.1583125 363.7765879 C-221.16927185 365.96638248 -221.17317992 368.15612947 -221.17700195 370.34594727 C-221.18327256 371.92177986 -221.18991989 373.497611 -221.19691467 375.07344055 C-221.21788987 380.23775211 -221.22831229 385.40206373 -221.23828125 390.56640625 C-221.24233152 392.34978691 -221.24644853 394.13316742 -221.25063133 395.91654778 C-221.26967019 404.29881204 -221.28390285 412.68106759 -221.2922433 421.06334931 C-221.30200517 430.71275928 -221.32830271 440.36193922 -221.36874419 450.0112682 C-221.39899042 457.48669163 -221.41372029 464.96204945 -221.41702431 472.43753284 C-221.41936544 476.89417974 -221.42820283 481.35058053 -221.45348549 485.80716133 C-221.47692017 490.00566868 -221.48093828 494.20377056 -221.47072411 498.40232658 C-221.47023232 499.93365205 -221.47644585 501.46499854 -221.49028015 502.9962616 C-221.58618877 514.25204297 -221.08709876 526.89396292 -212.875 535.5 C-203.2164589 545.23745075 -189.82263485 548.29838323 -176.5 549.25 C-160.96438974 548.94892228 -147.62643706 543.44787818 -136.47265625 532.6953125 C-109.4156701 503.20191528 -116.80589585 448.71156168 -118.34375 411.3984375 C-118.48903231 408.2025275 -118.64929908 405.00753735 -118.8125 401.8125 C-118.84743561 401.06708954 -118.88237122 400.32167908 -118.91836548 399.55368042 C-119.95841584 378.02317472 -125.54201017 359.19798385 -137 341 C-137.48082031 340.20722656 -137.96164062 339.41445313 -138.45703125 338.59765625 C-144.31913488 329.79605397 -153.91282816 325.20470209 -163.92578125 322.66015625 C-179.63388361 319.72254738 -197.89823228 320.50747459 -210 332 Z M-356 375 C-368.08607178 391.1313073 -369.31665003 406.95495009 -369.30078125 426.390625 C-369.3046757 428.38303719 -369.30901189 430.37544856 -369.31376648 432.36785889 C-369.32120257 436.53351539 -369.32095693 440.6990871 -369.31567383 444.86474609 C-369.30989034 450.16780098 -369.32679602 455.47050532 -369.3500185 460.77350235 C-369.36484859 464.88653548 -369.36561487 468.99948606 -369.36250877 473.1125412 C-369.36301759 475.06590213 -369.36817134 477.01926822 -369.37832069 478.97260284 C-369.46824949 498.70245029 -367.38554706 516.48937521 -354 532 C-351.49919205 534.34087256 -348.9224226 536.22113407 -346 538 C-345.11441406 538.56460938 -345.11441406 538.56460938 -344.2109375 539.140625 C-329.27826495 547.65542552 -311.97375353 545.56061173 -296 542 C-294.32456257 541.3556929 -292.65577597 540.69327351 -291 540 C-290.88381613 533.36659992 -291.11485485 526.85827484 -291.70195007 520.251297 C-293.42559695 500.56167411 -293.26716851 480.87986602 -293.19561768 461.13183594 C-293.18478768 457.37049035 -293.18519196 453.60918066 -293.18563271 449.84782219 C-293.18508441 431.94246506 -293.13087742 414.0645263 -292.23657227 396.17749023 C-291.94797022 390.37071598 -291.84172024 384.5627665 -291.75 378.75 C-291.73365005 377.79995087 -291.71730011 376.84990173 -291.70045471 375.87106323 C-291.64420192 371.05038177 -291.91577368 367.94009912 -295 364 C-295.4125 363.443125 -295.825 362.88625 -296.25 362.3125 C-301.50433247 358.37175064 -308.48315032 358.64602123 -314.75 358.6875 C-315.63816406 358.69313965 -316.52632812 358.6987793 -317.44140625 358.70458984 C-331.70258408 358.96820239 -346.31179597 364.07723002 -356 375 Z M-24.3125 553.4375 C-33.51664969 564.95540002 -35.33580035 579.75659978 -33.77294922 594.08105469 C-31.9810803 608.06837711 -28.61495999 621.23727256 -17.1953125 630.45703125 C-7.46991844 637.13567323 4.11437369 638.6784632 15.5625 639.9375 C54.21660572 644.58129648 88.06333013 660.20067554 113 691 C118.82848342 698.70985745 123.625616 707.03897213 128.375 715.4375 C133.54671348 724.55301128 139.45447518 732.82782791 146 741 C146.47469727 741.60102539 146.94939453 742.20205078 147.43847656 742.82128906 C158.50479595 757.12462564 158.50479595 757.12462564 174.39453125 764.3359375 C184.55289366 764.50004675 190.26400175 760.3824999 197.54296875 753.55078125 C214.46286363 735.9852942 218.4840467 713.27494379 218.21484375 689.71484375 C218.0067604 681.93821315 216.83534915 674.54733145 215 667 C214.83371094 666.31131836 214.66742187 665.62263672 214.49609375 664.91308594 C211.61143081 653.37977616 207.18823498 642.67480513 202 632 C201.46584473 630.90075195 201.46584473 630.90075195 200.92089844 629.77929688 C181.98589234 591.36390196 150.2378549 563.51470407 110 549 C103.08571065 546.67464299 96.07837043 544.75511259 89 543 C88.21641113 542.80422363 87.43282227 542.60844727 86.62548828 542.40673828 C53.63073994 534.41794851 1.20673731 525.42390115 -24.3125 553.4375 Z M-258.5625 604.25 C-275.01664072 611.92975938 -292.22591433 614.42031764 -310.25 614.375 C-310.99200653 614.37512085 -311.73401306 614.3752417 -312.49850464 614.37536621 C-325.97298497 614.34429946 -338.82865319 612.93407688 -352 610 C-352.87640137 609.80792969 -353.75280273 609.61585938 -354.65576172 609.41796875 C-359.45760449 608.35350747 -364.2290534 607.19609408 -369 606 C-368.4042685 615.79865025 -367.61302998 625.54868384 -366.58203125 635.3125 C-366.44304699 636.64221761 -366.30410673 637.97193982 -366.16520691 639.30166626 C-365.72094956 643.53516223 -365.26802166 647.76770278 -364.8125 652 C-364.73485413 652.72235588 -364.65720825 653.44471176 -364.57720947 654.18895721 C-358.41589886 711.4013254 -350.41370615 768.49049139 -323 820 C-322.4419165 821.06613525 -322.4419165 821.06613525 -321.87255859 822.15380859 C-306.4752038 851.45555786 -284.41049334 878.84031735 -258 899 C-257.35820801 899.49113281 -256.71641602 899.98226563 -256.05517578 900.48828125 C-245.21630628 908.72071435 -234.10773083 915.79284036 -222 922 C-220.81229004 922.6202002 -220.81229004 922.6202002 -219.60058594 923.25292969 C-147.65527006 960.52925624 -52.7607431 961.33268889 23.484375 937.203125 C34.20061385 933.66104485 44.63780687 929.46214404 55 925 C55.7852002 924.66532715 56.57040039 924.3306543 57.37939453 923.98583984 C81.49152918 913.59054357 103.78077569 898.65775559 124 882 C124.59103516 881.51337891 125.18207031 881.02675781 125.79101562 880.52539062 C139.13822027 869.44333993 152.24242666 857.58836184 162.625 843.625 C163.09260742 843.00061035 163.56021484 842.3762207 164.04199219 841.73291016 C165.44142859 839.82125441 165.44142859 839.82125441 167 837 C166.67 836.01 166.34 835.02 166 834 C164.30726615 833.17154654 164.30726615 833.17154654 162.1953125 832.7109375 C161.39359619 832.49655029 160.59187988 832.28216309 159.76586914 832.0612793 C158.89438232 831.83480713 158.02289551 831.60833496 157.125 831.375 C135.51845645 825.30308103 118.04067425 814.60120372 102 799 C101.43369873 798.4534375 100.86739746 797.906875 100.28393555 797.34375 C96.38699191 793.52893094 92.84231111 789.60651087 89.5625 785.25 C89.06298828 784.58734131 88.56347656 783.92468262 88.04882812 783.24194336 C83.2210572 776.63748821 79.11072433 769.62413281 75 762.5625 C62.12005471 740.45673197 49.52491261 719.5083042 24 711 C7.15723476 706.87524116 -8.37992679 714.08050362 -22.56982422 722.53027344 C-35.48449135 730.39785605 -47.92197448 738.905031 -60 748 C-60.9585791 748.72098877 -60.9585791 748.72098877 -61.93652344 749.45654297 C-69.32971877 755.05457927 -76.32730977 760.94727085 -83.0859375 767.296875 C-85.30799656 769.35808796 -87.5547335 771.33905677 -89.85546875 773.30859375 C-94.16266381 777.06084288 -98.0575186 781.12546971 -101.9375 785.3125 C-102.63625244 786.06160645 -103.33500488 786.81071289 -104.05493164 787.58251953 C-106.04182926 789.7169282 -108.02235337 791.85702127 -110 794 C-110.48210937 794.52094238 -110.96421875 795.04188477 -111.4609375 795.57861328 C-115.64561928 800.11256004 -119.63359272 804.75436059 -123.5 809.5625 C-127.07332907 813.98394906 -130.87343654 817.99526047 -134.95703125 821.9453125 C-136.7624756 823.76111313 -138.30893803 825.60572238 -139.875 827.625 C-145.94290421 834.87606102 -154.8124332 839.4417233 -164.1171875 840.28125 C-174.65470227 840.74241038 -183.14837883 838.39679062 -191.4375 831.75 C-197.42447903 826.03685369 -201.42584089 818.20081338 -202.3359375 809.95703125 C-202.5173301 795.3549266 -196.60014888 786.1920161 -188 775 C-187.5570459 774.41283203 -187.1140918 773.82566406 -186.65771484 773.22070312 C-176.15028607 759.29287736 -164.37827613 746.28957833 -151.1328125 734.9140625 C-147.84102318 731.95989259 -144.77216515 728.79303448 -141.6875 725.625 C-138.91945891 722.92133196 -136.04161164 720.39877297 -133.11914062 717.86523438 C-129.57895909 714.74922205 -126.17028951 711.49634968 -122.75 708.25 C-116.84555054 702.66915238 -110.90904039 697.13132255 -104.90625 691.65625 C-102.81639605 689.74616843 -100.73294239 687.8305246 -98.65625 685.90625 C-98.0880957 685.37999023 -97.51994141 684.85373047 -96.93457031 684.31152344 C-95.86020745 683.31563577 -94.78656347 682.31897162 -93.71386719 681.32128906 C-89.54889339 677.46323641 -85.28612585 673.72266579 -81 670 C-89.57468919 647.29782543 -98.27304516 624.64401135 -107 602 C-110.40173839 602.58400866 -113.28658208 603.43934203 -116.4140625 604.890625 C-149.34383902 619.80144159 -184.4561712 624.24301789 -219.00439453 611.76074219 C-226.13062458 609.04416122 -233.35446342 606.10652377 -239.9609375 602.2890625 C-246.93090882 599.33264793 -252.18299489 601.06911235 -258.5625 604.25 Z " fill="#000000" transform="translate(441,4)"/>
</svg>